<svg width="244" height="307" viewBox="0 0 244 307" fill="none" xmlns="http://www.w3.org/2000/svg">
<path fill-rule="evenodd" clip-rule="evenodd" d="M10 0C4.47715 0 0 4.47715 0 10L0 297C0 302.523 4.47716 307 10 307L234 307C239.523 307 244 302.523 244 297L244 235H73L73 71L244 71V10C244 4.47715 239.523 0 234 0L10 0Z" fill="#4A4443"/>
<path fill-rule="evenodd" clip-rule="evenodd" d="M102 86C96.4772 86 92 90.4771 92 96V210.627C92 216.15 96.4772 220.627 102 220.627H189C194.523 220.627 199 216.15 199 210.627V96C199 90.4772 194.523 86 189 86H102ZM199 117.135H124.012V189.053H199V117.135Z" fill="#4A4443"/>
</svg>
