<svg width="1954" height="246" viewBox="0 0 1954 246" fill="none" xmlns="http://www.w3.org/2000/svg">
<path d="M173.25 219.311L119.385 241.973L0 88.896L124.103 30.1336L173.25 219.311Z" fill="#4BA847"/>
<path d="M288.451 219.326L342.316 241.988L461.701 88.9111L337.598 30.1487L288.451 219.326Z" fill="#4BA847"/>
<path d="M268.04 214.391H193.667L146.22 4.3444H315.447L268.04 214.391Z" fill="#4BA847"/>
<path d="M513.585 241.032V4.18667H563.66V199.746H665.199V241.032H513.585ZM741.576 244.386C730.242 244.386 720.142 242.42 711.276 238.488C702.41 234.479 695.394 228.581 690.228 220.794C685.14 212.93 682.595 203.138 682.595 191.419C682.595 181.551 684.407 173.263 688.031 166.555C691.654 159.848 696.589 154.451 702.834 150.365C709.079 146.279 716.172 143.195 724.113 141.113C732.131 139.031 740.535 137.566 749.324 136.718C759.655 135.639 767.982 134.637 774.304 133.712C780.626 132.709 785.213 131.244 788.066 129.317C790.918 127.389 792.345 124.537 792.345 120.759V120.065C792.345 112.741 790.032 107.074 785.406 103.065C780.857 99.0559 774.381 97.0513 765.977 97.0513C757.111 97.0513 750.056 99.0174 744.814 102.949C739.571 106.804 736.102 111.661 734.405 117.521L688.84 113.82C691.153 103.026 695.702 93.6976 702.487 85.8336C709.271 77.8925 718.022 71.8017 728.739 67.5613C739.532 63.2438 752.022 61.0851 766.208 61.0851C776.077 61.0851 785.521 62.2416 794.542 64.5545C803.639 66.8674 811.696 70.4525 818.712 75.3097C825.805 80.1669 831.395 86.4118 835.481 94.0445C839.567 101.6 841.61 110.659 841.61 121.222V241.032H794.889V216.399H793.501C790.648 221.95 786.832 226.846 782.052 231.086C777.272 235.25 771.528 238.526 764.821 240.916C758.113 243.229 750.365 244.386 741.576 244.386ZM755.684 210.386C762.932 210.386 769.331 208.959 774.882 206.107C780.433 203.177 784.789 199.245 787.95 194.311C791.111 189.376 792.692 183.787 792.692 177.542V158.691C791.15 159.694 789.029 160.619 786.331 161.467C783.71 162.238 780.741 162.97 777.426 163.664C774.111 164.281 770.796 164.859 767.48 165.399C764.165 165.861 761.158 166.285 758.46 166.671C752.678 167.519 747.628 168.868 743.31 170.719C738.993 172.569 735.639 175.075 733.249 178.236C730.859 181.32 729.664 185.175 729.664 189.8C729.664 196.508 732.092 201.635 736.95 205.181C741.884 208.651 748.129 210.386 755.684 210.386ZM922.584 138.337V241.032H873.318V63.398H920.271V94.7384H922.353C926.285 84.4073 932.877 76.2349 942.129 70.2212C951.38 64.1305 962.598 61.0851 975.782 61.0851C988.118 61.0851 998.873 63.7835 1008.05 69.1804C1017.22 74.5772 1024.35 82.2871 1029.44 92.3098C1034.53 102.255 1037.07 114.129 1037.07 127.929V241.032H987.809V136.718C987.886 125.848 985.111 117.367 979.483 111.276C973.854 105.108 966.106 102.024 956.237 102.024C949.607 102.024 943.748 103.45 938.659 106.303C933.648 109.156 929.716 113.319 926.863 118.793C924.088 124.19 922.661 130.705 922.584 138.337ZM1134.85 243.923C1121.35 243.923 1109.13 240.454 1098.19 233.515C1087.32 226.499 1078.68 216.206 1072.28 202.637C1065.96 188.991 1062.8 172.261 1062.8 152.446C1062.8 132.092 1066.07 115.169 1072.63 101.677C1079.18 88.108 1087.89 77.9696 1098.76 71.262C1109.71 64.4774 1121.7 61.0851 1134.73 61.0851C1144.68 61.0851 1152.96 62.7812 1159.59 66.1736C1166.3 69.4888 1171.7 73.6521 1175.79 78.6635C1179.95 83.5977 1183.11 88.4549 1185.27 93.235H1186.77V4.18667H1235.92V241.032H1187.35V212.583H1185.27C1182.96 217.517 1179.68 222.413 1175.44 227.27C1171.28 232.05 1165.84 236.021 1159.13 239.182C1152.5 242.343 1144.41 243.923 1134.85 243.923ZM1150.46 204.719C1158.4 204.719 1165.11 202.56 1170.58 198.243C1176.13 193.848 1180.37 187.719 1183.3 179.855C1186.31 171.991 1187.81 162.777 1187.81 152.215C1187.81 141.653 1186.35 132.478 1183.42 124.691C1180.49 116.904 1176.25 110.89 1170.7 106.65C1165.15 102.41 1158.4 100.289 1150.46 100.289C1142.36 100.289 1135.54 102.487 1129.99 106.881C1124.44 111.276 1120.24 117.367 1117.38 125.154C1114.53 132.941 1113.1 141.961 1113.1 152.215C1113.1 162.546 1114.53 171.682 1117.38 179.623C1120.31 187.487 1124.52 193.655 1129.99 198.127C1135.54 202.522 1142.36 204.719 1150.46 204.719ZM1399.32 72.3029C1398.4 62.974 1394.43 55.7268 1387.41 50.5612C1380.4 45.3956 1370.87 42.8128 1358.85 42.8128C1350.67 42.8128 1343.77 43.9693 1338.15 46.2822C1332.52 48.5181 1328.2 51.6406 1325.19 55.6497C1322.26 59.6588 1320.8 64.2076 1320.8 69.296C1320.64 73.5364 1321.53 77.2371 1323.46 80.3982C1325.46 83.5592 1328.2 86.2962 1331.67 88.6091C1335.14 90.845 1339.15 92.811 1343.7 94.5071C1348.25 96.1262 1353.1 97.5139 1358.27 98.6704L1379.55 103.759C1389.88 106.072 1399.36 109.156 1408 113.011C1416.63 116.866 1424.11 121.607 1430.43 127.235C1436.75 132.863 1441.65 139.494 1445.12 147.127C1448.67 154.759 1450.48 163.51 1450.56 173.378C1450.48 187.873 1446.78 200.44 1439.45 211.079C1432.21 221.642 1421.72 229.853 1408 235.712C1394.35 241.495 1377.89 244.386 1358.62 244.386C1339.5 244.386 1322.84 241.456 1308.66 235.597C1294.55 229.737 1283.52 221.064 1275.58 209.576C1267.72 198.011 1263.59 183.71 1263.21 166.671H1311.66C1312.2 174.612 1314.48 181.242 1318.49 186.562C1322.57 191.805 1328.01 195.775 1334.79 198.474C1341.65 201.095 1349.4 202.406 1358.04 202.406C1366.52 202.406 1373.88 201.172 1380.13 198.705C1386.45 196.238 1391.34 192.807 1394.81 188.413C1398.28 184.018 1400.02 178.968 1400.02 173.263C1400.02 167.943 1398.44 163.471 1395.28 159.848C1392.19 156.224 1387.64 153.14 1381.63 150.596C1375.69 148.052 1368.41 145.739 1359.77 143.657L1333.98 137.181C1314.01 132.324 1298.25 124.73 1286.68 114.398C1275.12 104.067 1269.37 90.1511 1269.45 72.6498C1269.37 58.3095 1273.19 45.7811 1280.9 35.0645C1288.69 24.3478 1299.37 15.9827 1312.93 9.96903C1326.5 3.95537 1341.92 0.948545 1359.19 0.948545C1376.77 0.948545 1392.11 3.95537 1405.22 9.96903C1418.41 15.9827 1428.66 24.3478 1435.98 35.0645C1443.31 45.7811 1447.09 58.1939 1447.32 72.3029H1399.32ZM1590.71 165.399V63.398H1639.98V241.032H1592.68V208.767H1590.83C1586.82 219.175 1580.15 227.54 1570.82 233.862C1561.57 240.184 1550.27 243.345 1536.94 243.345C1525.06 243.345 1514.62 240.647 1505.6 235.25C1496.57 229.853 1489.52 222.182 1484.43 212.236C1479.42 202.29 1476.88 190.379 1476.8 176.501V63.398H1526.06V167.712C1526.14 178.197 1528.96 186.485 1534.51 192.576C1540.06 198.667 1547.5 201.712 1556.83 201.712C1562.76 201.712 1568.31 200.363 1573.48 197.664C1578.65 194.889 1582.81 190.803 1585.97 185.406C1589.21 180.009 1590.79 173.34 1590.71 165.399ZM1672.87 241.032V63.398H1720.63V94.3915H1722.48C1725.72 83.3664 1731.16 75.0398 1738.79 69.4117C1746.42 63.7064 1755.21 60.8538 1765.16 60.8538C1767.62 60.8538 1770.28 61.008 1773.14 61.3164C1775.99 61.6248 1778.5 62.0488 1780.65 62.5885V106.303C1778.34 105.609 1775.14 104.992 1771.06 104.453C1766.97 103.913 1763.23 103.643 1759.84 103.643C1752.59 103.643 1746.11 105.224 1740.41 108.385C1734.78 111.469 1730.31 115.786 1726.99 121.337C1723.76 126.888 1722.14 133.287 1722.14 140.535V241.032H1672.87ZM1872.3 244.502C1854.02 244.502 1838.3 240.801 1825.11 233.399C1812.01 225.921 1801.91 215.358 1794.81 201.712C1787.72 187.989 1784.17 171.759 1784.17 153.025C1784.17 134.752 1787.72 118.716 1794.81 104.915C1801.91 91.1148 1811.89 80.3596 1824.77 72.6498C1837.72 64.94 1852.91 61.0851 1870.33 61.0851C1882.05 61.0851 1892.96 62.974 1903.06 66.7518C1913.24 70.4525 1922.1 76.0421 1929.66 83.5206C1937.29 90.9992 1943.23 100.405 1947.47 111.739C1951.71 122.995 1953.83 136.179 1953.83 151.29V164.821H1803.83V134.29H1907.45C1907.45 127.197 1905.91 120.913 1902.83 115.439C1899.74 109.965 1895.46 105.686 1889.99 102.602C1884.59 99.4414 1878.31 97.8609 1871.14 97.8609C1863.66 97.8609 1857.03 99.5956 1851.25 103.065C1845.54 106.457 1841.07 111.045 1837.83 116.827C1834.6 122.532 1832.94 128.893 1832.86 135.909V164.936C1832.86 173.725 1834.48 181.32 1837.72 187.719C1841.03 194.118 1845.7 199.052 1851.71 202.522C1857.72 205.991 1864.86 207.726 1873.11 207.726C1878.58 207.726 1883.59 206.955 1888.14 205.413C1892.69 203.871 1896.58 201.558 1899.82 198.474C1903.06 195.39 1905.53 191.612 1907.22 187.141L1952.79 190.147C1950.47 201.095 1945.73 210.655 1938.56 218.828C1931.47 226.923 1922.29 233.245 1911.04 237.794C1899.86 242.266 1886.94 244.502 1872.3 244.502Z" fill="white"/>
</svg>
