<svg width="86" height="31" viewBox="0 0 86 31" fill="none" xmlns="http://www.w3.org/2000/svg">
<path d="M6.36 11.08C7.08 10.0133 8.06667 9.14667 9.32 8.48C10.6 7.81333 12.0533 7.48 13.68 7.48C15.5733 7.48 17.28 7.94667 18.8 8.88C20.3467 9.81333 21.56 11.1467 22.44 12.88C23.3467 14.5867 23.8 16.5733 23.8 18.84C23.8 21.1067 23.3467 23.12 22.44 24.88C21.56 26.6133 20.3467 27.96 18.8 28.92C17.28 29.88 15.5733 30.36 13.68 30.36C12.0267 30.36 10.5733 30.04 9.32 29.4C8.09333 28.7333 7.10667 27.88 6.36 26.84V30H0.76L0.76 0.4L6.36 0.4L6.36 11.08ZM18.08 18.84C18.08 17.5067 17.8 16.36 17.24 15.4C16.7067 14.4133 15.9867 13.6667 15.08 13.16C14.2 12.6533 13.24 12.4 12.2 12.4C11.1867 12.4 10.2267 12.6667 9.32 13.2C8.44 13.7067 7.72 14.4533 7.16 15.44C6.62667 16.4267 6.36 17.5867 6.36 18.92C6.36 20.2533 6.62667 21.4133 7.16 22.4C7.72 23.3867 8.44 24.1467 9.32 24.68C10.2267 25.1867 11.1867 25.44 12.2 25.44C13.24 25.44 14.2 25.1733 15.08 24.64C15.9867 24.1067 16.7067 23.3467 17.24 22.36C17.8 21.3733 18.08 20.2 18.08 18.84ZM46.1894 7.84L46.1894 30H40.5494V27.2C39.8294 28.16 38.8827 28.92 37.7094 29.48C36.5627 30.0133 35.3094 30.28 33.9494 30.28C32.216 30.28 30.6827 29.92 29.3494 29.2C28.016 28.4533 26.9627 27.3733 26.1894 25.96C25.4427 24.52 25.0694 22.8133 25.0694 20.84L25.0694 7.84H30.6694L30.6694 20.04C30.6694 21.8 31.1094 23.16 31.9894 24.12C32.8694 25.0533 34.0694 25.52 35.5894 25.52C37.136 25.52 38.3494 25.0533 39.2294 24.12C40.1094 23.16 40.5494 21.8 40.5494 20.04L40.5494 7.84H46.1894ZM54.7147 11.28C55.4347 10.1067 56.368 9.18667 57.5147 8.52C58.688 7.85333 60.0214 7.52 61.5147 7.52L61.5147 13.4H60.0347C58.2747 13.4 56.9414 13.8133 56.0347 14.64C55.1547 15.4667 54.7147 16.9067 54.7147 18.96V30H49.1147L49.1147 7.84L54.7147 7.84L54.7147 11.28ZM68.2866 11.08C69.0066 10.0133 69.9932 9.14667 71.2466 8.48C72.5266 7.81333 73.9799 7.48 75.6066 7.48C77.4999 7.48 79.2066 7.94667 80.7266 8.88C82.2732 9.81333 83.4866 11.1467 84.3666 12.88C85.2732 14.5867 85.7266 16.5733 85.7266 18.84C85.7266 21.1067 85.2732 23.12 84.3666 24.88C83.4866 26.6133 82.2732 27.96 80.7266 28.92C79.2066 29.88 77.4999 30.36 75.6066 30.36C73.9532 30.36 72.4999 30.04 71.2466 29.4C70.0199 28.7333 69.0332 27.88 68.2866 26.84V30L62.6866 30V0.4H68.2866V11.08ZM80.0066 18.84C80.0066 17.5067 79.7266 16.36 79.1666 15.4C78.6332 14.4133 77.9132 13.6667 77.0066 13.16C76.1266 12.6533 75.1666 12.4 74.1266 12.4C73.1132 12.4 72.1532 12.6667 71.2466 13.2C70.3666 13.7067 69.6466 14.4533 69.0866 15.44C68.5532 16.4267 68.2866 17.5867 68.2866 18.92C68.2866 20.2533 68.5532 21.4133 69.0866 22.4C69.6466 23.3867 70.3666 24.1467 71.2466 24.68C72.1532 25.1867 73.1132 25.44 74.1266 25.44C75.1666 25.44 76.1266 25.1733 77.0066 24.64C77.9132 24.1067 78.6332 23.3467 79.1666 22.36C79.7266 21.3733 80.0066 20.2 80.0066 18.84Z" fill="white"/>
</svg>
